:SAMPLES-PER-SECOND 30
:FRAME-RANGE 1-2045
:FULLY-SPECIFIED
:DEGREES
959
root  14.4862 37.3763 4.99002 -119.466 -84.3199 115.697
RightUpLeg  -18.9558 -5.22681 -16.94
RightLeg  62.7177 -6.53334 -14.0425
RightFoot  -1.26546 -0.598434 6.68216
RightToes  5.82063e-011 0 -3.6325e-017
Spine  15.0736 0.298045 -5.9761
Spine1  1.89174 -0.722817 -0.474286
HEad  8.22637 -13.4242 1.7689
LeftShoulder1  1.7697 -2.18891 -24.8935
LeftArm  23.0536 -31.4074 -35.2785
LeftForeArm  -5.13307 -22.153 -5.79081
LeftHand  0.044696 -1.63696 -0.594265
RightShoulder  8.36748 11.913 47.5205
RightArm  -3.98398 3.47673 11.9032
RightForeArm  1.5262 59.1326 19.1241
RightHand  0.221422 0.331925 4.47743
LeftUpLeg  -10.9671 16.4178 7.17128
LeftLeg  33.5492 -1.41673 -0.639052
LeftFoot  -16.1632 -0.526527 -14.7273
LeftToes  -3.90176e-010 -2.48536e-010 1.05482e-011
960
root  13.6345 37.4948 5.45406 -129.306 -84.2655 126.261
RightUpLeg  -22.7427 -9.06562 -14.8022
RightLeg  62.5612 -4.62682 -10.1427
RightFoot  -3.47068 -0.613838 8.56278
RightToes  5.82063e-011 0 -3.6325e-017
Spine  15.3134 0.161162 -6.4161
Spine1  1.22894 -0.967925 -0.136907
HEad  7.78204 -11.3529 2.06681
LeftShoulder1  1.77851 -2.2424 -24.7518
LeftArm  22.2825 -33.2765 -35.8501
LeftForeArm  -4.59373 -23.2321 -5.31306
LeftHand  0.0527514 -1.7427 -0.707625
RightShoulder  8.81256 12.4634 48.3296
RightArm  -2.19777 3.98537 13.2367
RightForeArm  0.714731 57.7082 18.0667
RightHand  0.253668 0.564936 4.90534
LeftUpLeg  -9.78493 16.921 7.14933
LeftLeg  33.2301 -1.15019 -0.437452
LeftFoot  -17.9857 -0.763154 -14.9243
LeftToes  -3.90176e-010 -2.48536e-010 1.05482e-011
961
root  12.7296 37.6741 5.86841 -140.769 -84.026 138.695
RightUpLeg  -26.4268 -13.4362 -11.1948
RightLeg  60.062 -5.50555 -10.7154
RightFoot  -4.92034 -0.594355 9.97292
RightToes  5.82063e-011 0 -3.6325e-017
Spine  15.1949 -0.16389 -6.5182
Spine1  0.823988 -1.28751 0.270391
HEad  6.93106 -9.12877 2.537
LeftShoulder1  1.83273 -2.40074 -24.8454
LeftArm  20.0566 -34.9769 -36.0107
LeftForeArm  -2.90992 -24.0769 -5.29324
LeftHand  0.083029 -1.90445 -1.16147
RightShoulder  9.35781 13.332 48.6682
RightArm  -0.439441 4.85829 14.5557
RightForeArm  -1.19181 56.3803 17.2662
RightHand  0.261808 0.619741 5.01185
LeftUpLeg  -8.35854 17.5456 7.31029
LeftLeg  32.0658 -0.841718 -0.196646
LeftFoot  -19.2531 -0.915762 -14.8343
LeftToes  -3.90176e-010 -2.48536e-010 1.05482e-011
962
root  11.7849 37.8878 6.26319 -153.861 -82.8979 152.74
RightUpLeg  -29.5948 -16.7173 -6.833
RightLeg  54.697 -7.72366 -11.931
RightFoot  -6.08593 -0.546147 10.963
RightToes  5.82063e-011 0 -3.6325e-017
Spine  15.0057 -0.497303 -6.20068
Spine1  0.534131 -1.46023 0.386267
HEad  5.94746 -6.3983 2.85536
LeftShoulder1  1.92286 -2.67865 -24.9132
LeftArm  17.8991 -36.4116 -35.7629
LeftForeArm  -1.85799 -24.7247 -5.38501
LeftHand  0.0717899 -1.89059 -0.985
RightShoulder  10.3412 15.0143 48.8823
RightArm  0.980852 6.49032 15.7038
RightForeArm  -4.75352 54.5412 16.3315
RightHand  0.263134 0.361356 5.29561
LeftUpLeg  -6.35591 18.5107 7.50225
LeftLeg  30.1631 -0.139943 0.278289
LeftFoot  -20.048 -1.00282 -14.6776
LeftToes  -3.90176e-010 -2.48536e-010 1.05482e-011
963
root  10.7774 38.0625 6.6307 -161.966 -80.8138 161.835
RightUpLeg  -31.8424 -17.9525 -2.97421
RightLeg  46.5672 -9.24795 -10.6109
RightFoot  -6.47619 -0.524108 11.2621
RightToes  5.82063e-011 0 -3.6325e-017
Spine  14.7009 -0.752773 -5.87853
Spine1  0.250294 -1.53255 0.35856
HEad  5.23472 -3.47353 3.11827
LeftShoulder1  1.98262 -2.85701 -24.985
LeftArm  16.286 -37.6813 -35.4556
LeftForeArm  -1.66576 -25.0295 -5.44386
LeftHand  0.0496842 -1.75441 -0.655352
RightShoulder  11.5991 17.2716 48.8447
RightArm  1.42681 8.63158 16.8065
RightForeArm  -7.62813 52.775 15.4763
RightHand  0.268031 0.107611 5.79449
LeftUpLeg  -4.1557 18.9312 7.06856
LeftLeg  27.8936 1.93023 1.46807
LeftFoot  -20.3236 -1.01534 -14.4081
LeftToes  -3.90176e-010 -2.48536e-010 1.05482e-011
964
root  9.69723 38.1137 6.95944 -166.076 -78.7549 166.832
RightUpLeg  -32.7095 -17.0629 -0.271785
RightLeg  36.5171 -9.56997 -7.77785
RightFoot  -5.89896 -0.612415 11.9958
RightToes  5.82063e-011 0 -3.6325e-017
Spine  14.5369 -1.0484 -5.26013
Spine1  -0.179948 -1.64887 0.35184
HEad  4.79956 -0.679985 2.74819
LeftShoulder1  2.03624 -3.032 -24.9716
LeftArm  15.1665 -38.9344 -35.5436
LeftForeArm  -1.3752 -24.6857 -5.35177
LeftHand  0.0655197 -1.89765 -0.883128
RightShoulder  12.7113 19.3188 48.6954
RightArm  1.2159 11.1692 17.6159
RightForeArm  -8.75492 51.5798 14.8822
RightHand  0.265785 0.184603 5.76973
LeftUpLeg  -2.05823 19.4677 6.62277
LeftLeg  26.2272 3.70375 2.33866
LeftFoot  -21.0212 -1.10555 -14.4745
LeftToes  -3.90176e-010 -2.48536e-010 1.05482e-011
965
root  8.52308 38.0304 7.215 -168.525 -77.4442 169.943
RightUpLeg  -31.9178 -14.863 1.11789
RightLeg  25.8499 -9.42287 -5.15376
RightFoot  -5.33829 -0.722719 13.0345
RightToes  5.82063e-011 0 -3.6325e-017
Spine  14.497 -1.44185 -4.50701
Spine1  -0.60285 -1.98361 0.805005
HEad  4.1845 1.80436 1.89657
LeftShoulder1  2.10854 -3.29682 -24.8167
LeftArm  14.8226 -39.9162 -35.8072
LeftForeArm  -1.36262 -24.498 -5.30913
LeftHand  0.0397289 -1.81793 -0.482917
RightShoulder  13.5152 21.0921 48.0018
RightArm  0.717229 13.6604 18.3808
RightForeArm  -8.7508 50.8182 14.472
RightHand  0.262129 0.314797 5.32413
LeftUpLeg  -0.0148917 20.129 6.63471
LeftLeg  25.3488 4.33444 2.5876
LeftFoot  -22.1932 -1.2832 -14.8356
LeftToes  -3.90176e-010 -2.48536e-010 1.05482e-011
966
root  7.26352 37.8626 7.4325 -171.383 -77.4141 172.996
RightUpLeg  -30.3854 -12.8596 1.79651
RightLeg  17.8721 -7.88966 -3.04117
RightFoot  -2.13325 -1.0349 12.6222
RightToes  5.82063e-011 0 -3.6325e-017
Spine  14.7806 -2.17414 -3.02732
Spine1  -0.633905 -2.78103 1.73532
HEad  3.66387 3.87248 0.983157
LeftShoulder1  2.182 -3.56835 -24.6599
LeftArm  14.6187 -41.0171 -36.043
LeftForeArm  -1.03497 -24.1126 -5.20679
LeftHand  0.0317212 -1.87433 -0.345711
RightShoulder  14.0625 22.741 46.7441
RightArm  0.15597 15.9075 19.0288
RightForeArm  -8.99161 50.4543 14.2981
RightHand  0.285241 0.347418 5.75872
LeftUpLeg  2.13362 20.616 7.48234
LeftLeg  25.3898 3.68337 2.25133
LeftFoot  -23.7352 -1.5358 -15.3726
LeftToes  -3.90176e-010 -2.48536e-010 1.05482e-011
